<?xml version="1.0" encoding="UTF-8" standalone="no"?>
<svg width="14.8167mm" height="18.6972mm"
 viewBox="0 0 42 53"
 xmlns="http://www.w3.org/2000/svg" xmlns:xlink="http://www.w3.org/1999/xlink"  version="1.2" baseProfile="tiny">
<title>E3_treble_clef</title>
<desc>Dorico</desc>
<defs>
</defs>
<g fill="none" stroke="black" stroke-width="1" fill-rule="evenodd" stroke-linecap="square" stroke-linejoin="bevel" >

<g fill="none" stroke="#000000" stroke-opacity="1" stroke-width="0.6448" stroke-linecap="butt" stroke-linejoin="miter" stroke-miterlimit="2" transform="matrix(1,0,0,1,-106.667,-153.625)"
font-family=".AppleSystemUIFont" font-size="13" font-weight="400" font-style="normal" 
>
<polyline fill="none" vector-effect="none" points="109.372,169.94 570,169.94 " />
<polyline fill="none" vector-effect="none" points="109.372,164.98 570,164.98 " />
<polyline fill="none" vector-effect="none" points="109.372,179.86 570,179.86 " />
<polyline fill="none" vector-effect="none" points="109.372,174.9 570,174.9 " />
<polyline fill="none" vector-effect="none" points="109.372,160.02 570,160.02 " />
</g>

<g fill="none" stroke="#000000" stroke-opacity="1" stroke-width="0.7936" stroke-linecap="butt" stroke-linejoin="miter" stroke-miterlimit="2" transform="matrix(1,0,0,1,-106.667,-153.625)"
font-family=".AppleSystemUIFont" font-size="13" font-weight="400" font-style="normal" 
>
<polyline fill="none" vector-effect="none" points="134.302,194.74 145.887,194.74 " />
<polyline fill="none" vector-effect="none" points="134.302,189.78 145.887,189.78 " />
<polyline fill="none" vector-effect="none" points="134.302,184.82 145.887,184.82 " />
</g>

<g fill="none" stroke="#000000" stroke-opacity="1" stroke-width="1" stroke-linecap="square" stroke-linejoin="bevel" transform="matrix(0.5,0,0,0.5,29.6186,43.595)"
font-family="Petaluma" font-size="40" font-weight="400" font-style="normal" 
>
</g>

<g fill="#000000" fill-opacity="1" stroke="none" transform="matrix(0.5,0,0,0.5,29.6186,43.595)"
font-family="Petaluma" font-size="40" font-weight="400" font-style="normal" 
>
<path vector-effect="none" fill-rule="nonzero" d="M15.2,-1.12 C15.08,4.2 10.2,7.2 6.2,7.44 C5,7.52 3.96,6.88 2.84,6.48 L1.72,6 C0.6,5.48 0,4.6 0,3.52 C0,3.2 0.04,2.88 0.16,2.52 C0.92,0.24 1.92,-1.96 3.4,-3.92 C4.72,-5.68 6.92,-6.6 9.08,-6.6 C11.04,-6.6 12.96,-5.88 14.28,-4.4 C15.12,-3.48 15.24,-2.32 15.2,-1.12 M6.88,2.96 C8.2,2.84 9.48,2.44 10.68,1.76 C11.16,1.48 11.52,1.12 11.84,0.64 C12,0.4 12.08,0.16 12.08,-0.08 C12.08,-0.4 11.88,-0.68 11.48,-0.88 C10.44,-1.36 9.52,-2.04 8.36,-2.04 C8.08,-2.04 7.84,-2 7.56,-1.92 C5.76,-1.48 4.36,-0.56 3.36,0.96 C3.24,1.16 3.08,1.4 3.08,1.6 C3.08,1.8 3.2,1.96 3.48,2.08 C4.56,2.48 5.6,2.96 6.88,2.96 "/>
</g>

<g fill="none" stroke="#000000" stroke-opacity="1" stroke-width="1" stroke-linecap="square" stroke-linejoin="bevel" transform="matrix(0.5,0,0,0.5,29.6186,43.595)"
font-family="Petaluma" font-size="40" font-weight="400" font-style="normal" 
>
<text fill="#000000" fill-opacity="1" stroke="none" xml:space="preserve" x="0" y="0" font-family=".AppleSystemUIFont" font-size="13" font-weight="400" font-style="normal" 
 ></text>
</g>

<g fill="none" stroke="#000000" stroke-opacity="1" stroke-width="1" stroke-linecap="square" stroke-linejoin="bevel" transform="matrix(0.5,0,0,0.5,5.18519,21.275)"
font-family="Petaluma" font-size="40" font-weight="400" font-style="normal" 
>
</g>

<g fill="#000000" fill-opacity="1" stroke="none" transform="matrix(0.5,0,0,0.5,5.18519,21.275)"
font-family="Petaluma" font-size="40" font-weight="400" font-style="normal" 
>
<path vector-effect="none" fill-rule="nonzero" d="M9.52,22.36 C9.72,22.36 9.92,22.32 10.16,22.24 C10.64,22.08 11.04,21.84 11.36,21.48 C14.68,18 16.04,13.8 16.16,9.12 C16.16,8.76 16.2,8.16 16.2,8.16 C16.2,8.16 16.76,7.84 17,7.76 C18.32,7.12 19.6,6.4 20.76,5.48 C23.8,3.04 25.56,-0.28 26.36,-3.96 C26.52,-4.56 26.56,-5.16 26.56,-5.72 C26.56,-8.24 25.16,-10.08 21.96,-10.68 C21.16,-10.84 20.36,-10.92 19.56,-10.92 C17.56,-10.92 15.64,-10.4 13.84,-9.32 C13.6,-9.2 13.36,-9.04 13.36,-9.04 L12.32,-12.92 C12.28,-13.12 12.28,-13.48 12.28,-13.48 C12.28,-13.48 16.36,-20.72 16.92,-24.44 C17.12,-25.52 17.2,-26.6 17.2,-27.68 C17.2,-28.52 17.16,-29.32 17.04,-30.12 C16.64,-33 15.56,-35.72 14.84,-38.52 C14.64,-39.36 14.36,-40.36 13.4,-40.36 C12.68,-40.36 12.16,-39.68 11.72,-39.08 C9.68,-36.24 8.68,-33 8.48,-29.52 C8.44,-28.96 8.44,-28.4 8.44,-27.84 C8.44,-24.6 8.96,-21.36 9.4,-18.16 C9.4,-17.92 9.48,-17.68 9.52,-17.48 C7.72,-14.92 5.72,-12.52 4,-9.88 C2.8,-8 1.48,-6.12 0.64,-4 C0.2,-2.96 0,-1.76 0,-0.56 C0,1.92 0.84,4.44 2.28,5.84 C3.12,6.64 4.44,7.52 5.76,8 C7.6,8.68 9.44,9.12 11.4,9.12 C11.96,9.12 12.56,9.08 13.16,9 L13.64,8.92 C13.64,8.92 13.68,9.28 13.64,9.48 C13.2,11.88 12.6,14.24 11.16,16.24 C10.4,17.28 9.68,18.44 8.16,18.56 C7.72,18.6 7.52,18.88 7.52,19.24 C7.52,19.4 7.56,19.52 7.6,19.68 C7.84,20.28 8.12,20.92 8.4,21.52 C8.64,22.08 9.04,22.36 9.52,22.36 M11.4,4.44 C10,4.44 8.64,4.08 8.64,4.08 C8.64,4.08 8.52,3.52 8.52,2.72 C8.52,2.2 8.56,1.56 8.72,0.92 C9.12,-1 10.48,-2.36 11.92,-3.64 C12.04,-3.76 12.16,-3.84 12.24,-3.84 C12.4,-3.84 12.44,-3.68 12.48,-3.4 C12.84,-1.04 13.44,1.28 13.6,3.64 C13.64,3.88 13.6,4.24 13.6,4.24 C13.6,4.24 12.56,4.52 11.4,4.44 M7,3.76 C6.44,3.72 5.96,3.52 5.44,3.36 C4.4,3 3.52,2.6 3.24,1.92 C3.12,1.6 3.08,1.24 3.08,0.88 C3.08,0.44 3.16,-0.04 3.24,-0.52 C3.28,-0.76 3.52,-1.44 3.6,-1.56 C5.16,-4.32 7.04,-6.84 9,-9.36 L10.68,-11.56 L10.96,-10.68 C11.28,-9.68 11.56,-8.08 11.56,-8.08 C11.56,-8.08 10.44,-6.64 9.72,-5.92 C7.72,-3.96 6.76,-1.52 6.76,1.16 C6.76,1.84 6.84,2.52 6.96,3.24 C7,3.4 7,3.52 7,3.76 M15.8,3.64 L15.64,2.52 C15.32,-0.08 14.72,-2.16 14.16,-4.68 C14.12,-4.96 14.12,-5.16 14.24,-5.32 C15.28,-5.52 16.28,-5.6 17.32,-5.6 C18.32,-5.6 19.28,-5.52 20.28,-5.32 C21.48,-5.08 22.68,-4.88 23.6,-3.92 C23.68,-3.84 23.76,-3.76 23.84,-3.72 C22.24,-0.52 19.88,1.88 16.52,3.36 L15.8,3.64 M11.12,-19.92 C10.8,-21.84 10.6,-23.72 10.6,-25.6 C10.6,-29.08 11.32,-32.48 13.36,-35.72 C13.84,-34.24 14.08,-32.76 14.08,-31.24 C14.08,-30.48 14,-29.68 13.88,-28.88 C13.36,-25.76 12.64,-22.72 11.12,-19.92 "/>
</g>

<g fill="none" stroke="#000000" stroke-opacity="1" stroke-width="1" stroke-linecap="square" stroke-linejoin="bevel" transform="matrix(0.5,0,0,0.5,5.18519,21.275)"
font-family="Petaluma" font-size="40" font-weight="400" font-style="normal" 
>
<text fill="#000000" fill-opacity="1" stroke="none" xml:space="preserve" x="0" y="0" font-family=".AppleSystemUIFont" font-size="13" font-weight="400" font-style="normal" 
 ></text>
</g>

<g fill="none" stroke="#000000" stroke-opacity="1" stroke-width="2" stroke-linecap="butt" stroke-linejoin="miter" stroke-miterlimit="2" transform="matrix(1,0,0,1,-106.667,-153.625)"
font-family="Petaluma" font-size="40" font-weight="400" font-style="normal" 
>
</g>
</g>
</svg>
